# xmcd
#
# Track frame offsets: 
#        150
#        24600
#        40100
#        58200
#        80212
#        103187
#        124837
#        139700
#        154800
#        171600
#        192550
#
# Disc length: 2847 seconds
#
# Revision: 3
# Processed by: cddbd v1.5.2PL0 Copyright (c) Steve Scherf et al.
# Submitted via: ExactAudioCopy v1.0b3
#
DISCID=a50b1d0b
DTITLE=鄭鈞 - 赤裸裸
DYEAR=1994
DGENRE=Rock
TTITLE0=回到拉薩
TTITLE1=幸福可望不可及
TTITLE2=極樂世界
TTITLE3=赤裸裸
TTITLE4=灰姑娘
TTITLE5=商品社會
TTITLE6=牌坊
TTITLE7=茫然
TTITLE8=難得糊塗
TTITLE9=無為
TTITLE10=赤裸裸(硬搖滾版)
EXTD=
EXTT0=
EXTT1=
EXTT2=
EXTT3=
EXTT4=
EXTT5=
EXTT6=
EXTT7=
EXTT8=
EXTT9=
EXTT10=
PLAYORDER=
